# xmcd CD database file
# Generated: Wed Mar 1 23:00:05 2006 by KSCD
# 
# Track frame offsets:
#       150
#       38516
#       63873
#       81214
#       104753
#       124118
#       139723
#       155717
#       175153
#       191423
#       211854
#       221164
#       235812
#
# Disc length: 3337 seconds
#
# Revision: 3
# Processed by: cddbd v1.5.1PL2 Copyright (c) Steve Scherf et al.
# Submitted via: Kscd 1.3.3
#
DISCID=b50d070d
DTITLE=Bandits - Gospel Blue Grass
DYEAR=1900
DGENRE=
TTITLE0=Old Rugged Cross
TTITLE1=Amazing Grace
TTITLE2=Song Of Celebration
TTITLE3=Only Human
TTITLE4=What A Friend
TTITLE5=My Mind's Made Up
TTITLE6=Amazing Grace (Remix)
TTITLE7=A Language God Understands
TTITLE8=Power In The Blood
TTITLE9=Let Me Live
TTITLE10=Already On The Way
TTITLE11=Army Of The Lord
TTITLE12=Some Glad Morning
EXTD=
EXTT0=
EXTT1=
EXTT2=
EXTT3=
EXTT4=
EXTT5=
EXTT6=
EXTT7=
EXTT8=
EXTT9=
EXTT10=
EXTT11=
EXTT12=
PLAYORDER=
